<svg xmlns="http://www.w3.org/2000/svg" viewBox="0 0 512 512">
	<path id="red"
				d="M42.7,321.84A81.14,81.14,0,1,1,123.84,403,81.24,81.24,0,0,1,42.7,321.84Zm158.06,77.91A109.93,109.93,0,0,1,46,400.51,123.64,123.64,0,0,0,0,489.83,21,21,0,0,0,21,512H226.65a21,21,0,0,0,21-22.17A123.69,123.69,0,0,0,200.76,399.75ZM512,143.32c0,79-63.88,143.32-142.4,143.32a140.92,140.92,0,0,1-70-18.51,66.61,66.61,0,0,1-92-8.35,15,15,0,0,1,5.35-23.6A50.67,50.67,0,0,0,241,204.89a144.62,144.62,0,0,1-13.8-61.58C227.21,64.29,291.09,0,369.6,0S512,64.29,512,143.32ZM383.89,196.75a15,15,0,0,0-30,0v8.32a15,15,0,0,0,30,0Zm28-84.74a43.08,43.08,0,0,0-81.7-17.39,15,15,0,0,0,26.9,13.28,13.08,13.08,0,0,1,12.24-7.3,13.27,13.27,0,0,1,12.57,12.55,13,13,0,0,1-10.37,13.33,22.22,22.22,0,0,0-17.7,21.61v10.39a15,15,0,1,0,30,0v-4.41A43,43,0,0,0,411.92,112Z"
				fill="#dd2c00"/>
</svg>
