<svg xmlns="http://www.w3.org/2000/svg" viewBox="0 0 18 24">
	<path id="white"
				d="M5,11.47c0,.9-1.12.77-1.89.77h0v-1.5h.71C4.52,10.73,5,10.87,5,11.47Zm9.95-7.65h2.26l-3.09-3V3A.81.81,0,0,0,14.91,3.82Zm-6.2,7H8v3.31A6.9,6.9,0,0,0,9.54,14c1-.33.94-2.13.59-2.68S9.33,10.82,8.71,10.82ZM18,5V23.32a.68.68,0,0,1-.67.68H.7a.7.7,0,0,1-.7-.68V.68A.7.7,0,0,1,.7,0H12.92V3a2,2,0,0,0,2,1.93ZM5,10.08A15.55,15.55,0,0,0,2.69,10c-.47,0-.68.16-.68.6v3.77a.54.54,0,1,0,1.06,0V13H4a2.22,2.22,0,0,0,1.48-.38A1.45,1.45,0,0,0,5,10.08Zm4.93,0A13,13,0,0,0,7.59,10c-.44,0-.65.16-.65.6v3.58c0,.49.12.71.68.71l2-.05a2,2,0,0,0,1.71-1.61C11.66,12,11.28,10.41,9.92,10.08Zm5.6-.08H13c-.44,0-.65.16-.65.6v3.77a.74.74,0,0,0,.15.46.54.54,0,0,0,.91-.46V12.76H15.2c.65,0,.65-.74,0-.74H13.43V10.76h2.09a.53.53,0,0,0,.38-.11C16.11,10.49,16.11,10,15.52,10Z"
				fill="#fff"/>
</svg>
