<svg xmlns="http://www.w3.org/2000/svg" viewBox="0 0 24 24"><path id="white" d="M23.5,7h-3a.5.5,0,0,0-.5.5v3a.51.51,0,0,1-.5.5h-15A.48.48,0,0,1,4,10.5v-3A.54.54,0,0,0,3.47,7H.5a.51.51,0,0,0-.5.5v14A.54.54,0,0,0,.5,22H4.2a.67.67,0,0,0,.62-.5l.39-2A.69.69,0,0,1,5.83,19H18.17a.67.67,0,0,1,.62.48l.39,2a.67.67,0,0,0,.62.5h3.7a.53.53,0,0,0,.5-.53V7.5A.5.5,0,0,0,23.5,7ZM2,10A1,1,0,1,1,3,9,1,1,0,0,1,2,10ZM17.62,20.48A.68.68,0,0,0,17,20H7a.68.68,0,0,0-.62.48l-.76,3A.38.38,0,0,0,6,24H18a.38.38,0,0,0,.38-.48ZM19,9.44a.44.44,0,0,1-.38.49H5.5a.45.45,0,0,1-.45-.43V9.44L7,.5A.57.57,0,0,1,7.5,0h9a.57.57,0,0,1,.55.5Z" fill="#fff"/></svg>
