<svg xmlns="http://www.w3.org/2000/svg" viewBox="0 0 11.63 9.58">
	<path id="green"
				d="M11.63,1.13a4.7,4.7,0,0,1-1.37.38,2.41,2.41,0,0,0,1-1.34A4.77,4.77,0,0,1,9.8.76,2.37,2.37,0,0,0,8.05,0,2.4,2.4,0,0,0,5.67,2.42,2.44,2.44,0,0,0,5.73,3,6.75,6.75,0,0,1,.81.44a2.44,2.44,0,0,0,.74,3.23,2.36,2.36,0,0,1-1.08-.3v0A2.41,2.41,0,0,0,2.38,5.77a2.28,2.28,0,0,1-.63.09,2.33,2.33,0,0,1-.45,0A2.39,2.39,0,0,0,3.53,7.49a4.75,4.75,0,0,1-3,1,5,5,0,0,1-.57,0A6.7,6.7,0,0,0,3.66,9.58,6.79,6.79,0,0,0,10.45,2.7c0-.1,0-.21,0-.31a4.9,4.9,0,0,0,1.19-1.25"
				fill="#0bb89c"/>
</svg>
